HIERARCHY
ROOT Hips
{
	OFFSET 0.00000 0.00000 0.00000
	CHANNELS 6 Xposition Yposition Zposition Zrotation Yrotation Xrotation 
	JOINT LHipJoint
	{
		OFFSET 0 0 0
		CHANNELS 3 Zrotation Yrotation Xrotation
		JOINT LeftUpLeg
		{
			OFFSET 1.53927 -1.56553 0.51726
			CHANNELS 3 Zrotation Yrotation Xrotation
			JOINT LeftLeg
			{
				OFFSET 2.38199 -6.54447 0.00000
				CHANNELS 3 Zrotation Yrotation Xrotation
				JOINT LeftFoot
				{
					OFFSET 2.35499 -6.47028 0.00000
					CHANNELS 3 Zrotation Yrotation Xrotation
					JOINT LeftToeBase
					{
						OFFSET 0.13641 -0.37478 1.84251
						CHANNELS 3 Zrotation Yrotation Xrotation
						End Site
						{
							OFFSET 0.00000 -0.00000 0.95212
						}
					}
				}
			}
		}
	}
	JOINT RHipJoint
	{
		OFFSET 0 0 0
		CHANNELS 3 Zrotation Yrotation Xrotation
		JOINT RightUpLeg
		{
			OFFSET -1.43919 -1.56553 0.51726
			CHANNELS 3 Zrotation Yrotation Xrotation
			JOINT RightLeg
			{
				OFFSET -2.34860 -6.45274 0.00000
				CHANNELS 3 Zrotation Yrotation Xrotation
				JOINT RightFoot
				{
					OFFSET -2.25563 -6.19730 0.00000
					CHANNELS 3 Zrotation Yrotation Xrotation
					JOINT RightToeBase
					{
						OFFSET -0.19755 -0.54277 1.84912
						CHANNELS 3 Zrotation Yrotation Xrotation
						End Site
						{
							OFFSET -0.00000 -0.00000 0.97032
						}
					}
				}
			}
		}
	}
	JOINT LowerBack
	{
		OFFSET 0 0 0
		CHANNELS 3 Zrotation Yrotation Xrotation
		JOINT Spine
		{
			OFFSET -0.06402 1.88434 -0.00445
			CHANNELS 3 Zrotation Yrotation Xrotation
			JOINT Spine1
			{
				OFFSET 0.00756 1.88511 0.04237
				CHANNELS 3 Zrotation Yrotation Xrotation
				JOINT Neck
				{
					OFFSET 0 0 0
					CHANNELS 3 Zrotation Yrotation Xrotation
					JOINT Neck1
					{
						OFFSET -0.06230 1.34710 0.03308
						CHANNELS 3 Zrotation Yrotation Xrotation
						JOINT Head
						{
							OFFSET -0.02442 1.34501 -0.13654
							CHANNELS 3 Zrotation Yrotation Xrotation
							End Site
							{
								OFFSET -0.00508 1.35584 -0.05075
							}
						}
					}
				}
				JOINT LeftShoulder
				{
					OFFSET 0 0 0
					CHANNELS 3 Zrotation Yrotation Xrotation
					JOINT LeftArm
					{
						OFFSET 2.76911 0.54460 0.39412
						CHANNELS 3 Zrotation Yrotation Xrotation
						JOINT LeftForeArm
						{
							OFFSET 4.40919 -0.00000 -0.00000
							CHANNELS 3 Zrotation Yrotation Xrotation
							JOINT LeftHand
							{
								OFFSET 3.03857 -0.00000 -0.00000
								CHANNELS 3 Zrotation Yrotation Xrotation
								JOINT LeftFingerBase
								{
									OFFSET 0 0 0
									CHANNELS 3 Zrotation Yrotation Xrotation
									JOINT LeftHandIndex1
									{
										OFFSET 0.52321 -0.00000 -0.00000
										CHANNELS 3 Zrotation Yrotation Xrotation
										End Site
										{
											OFFSET 0.42182 -0.00000 -0.00000
										}
									}
								}
								JOINT LThumb
								{
									OFFSET 0 0 0
									CHANNELS 3 Zrotation Yrotation Xrotation
									End Site
									{
										OFFSET 0.42826 -0.00000 0.42826
									}
								}
							}
						}
					}
				}
				JOINT RightShoulder
				{
					OFFSET 0 0 0
					CHANNELS 3 Zrotation Yrotation Xrotation
					JOINT RightArm
					{
						OFFSET -2.99050 0.75949 0.48975
						CHANNELS 3 Zrotation Yrotation Xrotation
						JOINT RightForeArm
						{
							OFFSET -4.61969 -0.00000 -0.00000
							CHANNELS 3 Zrotation Yrotation Xrotation
							JOINT RightHand
							{
								OFFSET -3.09382 -0.00000 -0.00000
								CHANNELS 3 Zrotation Yrotation Xrotation
								JOINT RightFingerBase
								{
									OFFSET 0 0 0
									CHANNELS 3 Zrotation Yrotation Xrotation
									JOINT RightHandIndex1
									{
										OFFSET -0.50090 -0.00000 -0.00000
										CHANNELS 3 Zrotation Yrotation Xrotation
										End Site
										{
											OFFSET -0.40384 -0.00000 -0.00000
										}
									}
								}
								JOINT RThumb
								{
									OFFSET 0 0 0
									CHANNELS 3 Zrotation Yrotation Xrotation
									End Site
									{
										OFFSET -0.41000 -0.00000 0.41000
									}
								}
							}
						}
					}
				}
			}
		}
	}
}
MOTION
Frames: 6
Frame Time: .0083333
1.1798 15.6288 0.9586 358.9970 -78.6997 -348.6250 0.0000 0.0000 0.0000 -11.8375 -17.8360 6.1269 3.9198 12.0530 35.9196 0.1587 -3.1664 -7.0974 0.2320 3.1001 8.5577 0.0000 0.0000 0.0000 10.3924 15.8313 -28.9020 -4.8953 -13.2649 40.3685 -0.3191 -8.4830 -16.9463 -0.0032 0.3628 -0.9968 -3.6030 -3.9323 -4.2640 1.4331 -5.1859 -3.3281 3.2770 -2.5556 -0.5954 6.6136 12.0504 5.3269 -7.0255 16.3509 -1.0422 -3.4789 8.2590 -0.0388 0.0000 -0.0000 0.0000 -69.7066 -0.3555 25.5612 100.1968 -59.6035 -68.8189 -0.0000 -0.0000 26.4636 41.3916 -21.1582 -17.6470 -7.1250 0.0000 -0.0000 7.8393 2.9110 -7.5027 0.0000 -0.0000 0.0000 70.7040 -32.1236 -3.4972 -71.5677 58.6765 -44.1081 0.0000 0.0000 6.6648 -27.4307 -41.5346 18.9911 7.1250 -0.0000 -0.0000 16.4181 -74.3925 -11.4697
1.3452 15.6326 1.0115 358.6690 -78.6208 -347.9540 0.0000 0.0000 0.0000 -11.9094 -18.1440 6.5364 3.4906 11.4498 33.8124 0.2242 -2.6788 -8.4201 0.0649 1.6432 4.5206 0.0000 0.0000 0.0000 9.7514 16.4630 -29.5430 -4.7633 -13.1122 39.7900 -0.2136 -9.1074 -16.2579 -0.0064 0.5176 -1.4222 -3.6324 -4.0039 -4.3714 1.5638 -5.2794 -3.3835 3.4170 -2.6019 -0.5708 7.4263 11.7163 6.8782 -8.3114 15.9702 -2.5608 -4.2431 8.1126 -0.6482 0.0000 0.0000 0.0000 -69.8121 -1.0334 25.9962 99.0382 -59.6891 -67.8192 -0.0000 -0.0000 26.5368 40.5864 -20.6419 -16.8046 -7.1250 0.0000 -0.0000 7.4634 3.7883 -7.0148 0.0000 0.0000 0.0000 70.6536 -31.8907 -3.2789 -71.8698 58.7208 -44.3662 0.0000 0.0000 6.8847 -27.2849 -41.2600 18.7863 7.1250 -0.0000 -0.0000 16.1410 -74.0882 -11.1691
1.5089 15.6350 1.0513 358.2100 -78.4369 -346.9890 0.0000 0.0000 0.0000 -11.7144 -18.4761 6.5491 3.1234 10.8923 31.9174 0.2913 -2.7738 -9.6149 0.0165 0.8306 2.2827 0.0000 0.0000 0.0000 9.0909 17.3172 -30.2743 -4.6134 -12.9347 39.1246 -0.0813 -10.0781 -15.5972 -0.0104 0.6589 -1.8107 -3.8105 -4.1602 -4.6098 1.7667 -5.4792 -3.4924 3.6995 -2.7001 -0.4987 7.2259 11.8401 6.5461 -7.9665 16.1230 -2.1899 -4.0458 8.1779 -0.5030 -0.0000 -0.0000 0.0000 -69.9139 -1.5221 26.3351 98.0861 -59.7515 -66.9970 -0.0000 -0.0000 26.4448 40.1837 -20.2004 -16.2586 -7.1250 0.0000 -0.0000 7.3093 4.4426 -6.7776 -0.0000 -0.0000 0.0000 70.5045 -31.7004 -2.8283 -72.3081 58.7836 -44.7410 0.0000 0.0000 7.1161 -27.4546 -40.4456 18.6265 7.1250 -0.0000 -0.0000 14.5267 -73.3947 -9.8238
1.7025 15.6457 1.1237 359.0460 -78.5415 -347.2660 0.0000 0.0000 0.0000 -12.1265 -18.7950 6.5809 2.8151 10.3895 30.2476 0.3685 -2.4111 -10.8869 0.0025 0.3242 0.8908 0.0000 0.0000 0.0000 7.9946 17.7299 -31.1461 -4.4326 -12.7149 38.3103 0.0241 -10.5509 -14.6461 -0.0135 0.7508 -2.0634 -3.7672 -4.2171 -4.4910 1.8160 -5.5672 -3.6652 3.7394 -2.7386 -0.7346 7.0338 11.9487 6.2168 -7.7644 16.2464 -2.0315 -3.9097 8.2317 -0.4182 -0.0000 -0.0000 0.0000 -70.0672 -2.0176 26.5541 97.0281 -59.8125 -66.0826 -0.0000 -0.0000 26.4867 40.0446 -20.0497 -16.0732 -7.1250 0.0000 -0.0000 7.2548 4.6654 -6.6957 -0.0000 -0.0000 0.0000 70.2064 -31.3811 -2.2207 -72.8342 58.8568 -45.1910 0.0000 0.0000 7.3975 -27.8407 -40.1484 18.8055 7.1250 -0.0000 -0.0000 13.4943 -73.2521 -9.0772
1.8851 15.6601 1.1916 359.6130 -78.8793 -347.4020 0.0000 0.0000 0.0000 -12.5923 -19.0763 6.6588 2.5693 9.9629 28.8567 0.4483 -1.4866 -12.2186 0.0036 -0.3862 -1.0613 0.0000 0.0000 0.0000 6.9603 18.4792 -31.7350 -4.2207 -12.4484 37.3372 0.1335 -11.1974 -13.8117 -0.0104 0.6586 -1.8098 -3.8424 -4.1264 -4.5821 1.8649 -5.4367 -3.5370 3.8251 -2.6767 -0.5521 7.1960 11.8553 6.0571 -8.1988 16.1001 -2.5490 -4.0943 8.1637 -0.5185 0.0000 0.0000 0.0000 -70.1683 -2.9657 26.8025 95.8166 -59.8718 -65.0351 -0.0000 -0.0000 26.6835 40.0660 -20.4512 -16.3768 -7.1250 0.0000 -0.0000 7.1870 4.1757 -6.6985 0.0000 0.0000 0.0000 70.0943 -30.7355 -2.0344 -73.3795 58.9301 -45.6579 0.0000 0.0000 7.7761 -27.7162 -40.3895 18.8001 7.1250 -0.0000 -0.0000 14.0534 -73.4348 -9.5125
2.0620 15.6764 1.2595 359.8810 -79.2185 -347.3090 0.0000 0.0000 0.0000 -12.9944 -19.4803 6.6740 2.3689 9.5956 27.6768 0.5115 -0.4577 -13.3604 0.0272 -1.0642 -2.9256 0.0000 0.0000 0.0000 5.9494 19.4668 -32.0822 -3.9817 -12.1360 36.2146 0.2433 -12.0126 -13.2219 -0.0027 0.3349 -0.9201 -3.8724 -3.9975 -4.6826 1.8917 -5.2561 -3.3978 3.8656 -2.5909 -0.3644 7.5573 11.6970 6.1365 -8.7977 15.8816 -3.2160 -4.3984 8.0657 -0.6864 -0.0000 0.0000 0.0000 -70.2419 -3.7716 27.1212 94.7061 -59.9161 -64.0744 -0.0000 -0.0000 27.0762 40.3900 -21.1131 -17.0379 -7.1250 0.0000 -0.0000 7.2472 3.2817 -6.8766 -0.0000 0.0000 0.0000 70.0533 -30.1783 -1.9555 -73.7301 58.9758 -45.9583 0.0000 0.0000 8.2383 -27.0585 -41.0031 18.5282 7.1250 -0.0000 -0.0000 16.0260 -73.7707 -10.9799
